<svg width="32" height="32" viewBox="0 0 58 100" xmlns="http://www.w3.org/2000/svg">
  <path d="M29.0196247,62.5097349 C15.2069994,62.5097349 4.64599757,45.6777165 4.64599757,24.3591914 C4.64599757,3.04405242 13.4457034,0 29.0196247,0 C44.5935459,0 52.6311525,3.04405242 52.6311525,24.3591914 C52.6311525,45.6777165 41.5790201,62.5097349 29.0196247,62.5097349 Z M56.7160044,81.9659364 C57.8506855,83.8519622 57.207135,86.2865269 55.2832579,87.397149 C54.6363203,87.7696137 53.9284148,87.9456879 53.2306706,87.9456879 C51.8453435,87.9456879 50.4938876,87.2481631 49.7385625,85.9919412 C48.4345261,83.831646 47.1000056,82.2943826 45.5961298,80.8891748 C44.092254,79.4907392 42.3851517,78.2379034 40.4307905,76.7785189 C39.4756262,76.070836 38.5238489,75.4579623 37.5754587,74.9365117 C37.6872333,75.1396743 37.7990079,75.3462229 37.9141695,75.5595436 C40.6577268,80.7198727 43.4893488,87.8813531 43.5028972,96.03833 C43.5028972,98.2257136 41.6907946,100 39.4553035,100 C37.2164253,100 35.4043227,98.2257136 35.4043227,96.03833 C35.4178711,89.8350997 33.1959285,83.8688924 30.8520499,79.4467206 C30.0933378,78.0042664 29.3278515,76.7311143 28.6368815,75.6678969 C27.9831697,76.6803237 27.2583287,77.8823689 26.5334876,79.236786 C24.1523509,83.679274 21.8558919,89.7402905 21.8694403,96.03833 C21.8694403,98.2257136 20.0573377,100 17.8218466,100 C15.5863555,100 13.7742529,98.2257136 13.7742529,96.03833 C13.7878013,87.8813531 16.6160362,80.7198727 19.3629806,75.5595436 C19.4747551,75.3462229 19.5865297,75.1396743 19.7016913,74.9365117 C18.7499141,75.4579623 17.8015239,76.070836 16.8463595,76.7785189 C14.8886113,78.2379034 13.181509,79.4907392 11.6810203,80.8891748 C10.1771445,82.2943826 8.83923692,83.831646 7.53520045,85.9953273 C6.40051937,87.8813531 3.91776941,88.507771 1.99389223,87.397149 C0.0666279455,86.2865269 -0.573535412,83.8519622 0.561145671,81.9659364 C2.25469953,79.1453628 4.15825406,76.944435 6.1092281,75.1362882 C8.06358925,73.3247554 10.0314988,71.8958453 11.9418276,70.4669353 C12.8461853,69.7897267 13.7742529,69.1666949 14.722643,68.6012257 C13.7742529,68.0357566 12.8461853,67.4093387 11.9418276,66.7321302 C7.57245863,63.471371 3.77551089,59.0729015 0.561145671,53.7331121 C-0.573535412,51.8437003 0.0666279455,49.4125216 1.99389223,48.3018996 C3.91776941,47.1912776 6.40051937,47.8176955 7.53520045,49.7037213 C10.319403,54.3324417 13.4795745,57.9148749 16.8429724,60.4205465 C20.4502422,63.0921342 23.9931568,64.4160769 27.6376847,64.6260116 C27.9696213,64.6158535 28.3049449,64.6056953 28.6368815,64.6056953 C28.9722052,64.6056953 29.3041417,64.6158535 29.6360783,64.6260116 C33.2806062,64.4160769 36.8269079,63.0921342 40.4307905,60.4205465 C43.7941885,57.9148749 46.9577471,54.3324417 49.7385625,49.7037213 C50.8766307,47.8176955 53.3559936,47.1912776 55.2832579,48.3018996 C57.207135,49.4125216 57.8506855,51.8437003 56.7160044,53.7297261 C53.5016392,59.0729015 49.7013043,63.471371 45.3319354,66.7321302 C44.4275776,67.4093387 43.4995101,68.0357566 42.5545071,68.6012257 C43.4995101,69.1666949 44.4275776,69.7897267 45.3319354,70.4669353 C47.2456513,71.8958453 49.2101737,73.3247554 51.167922,75.1362882 C53.118896,76.944435 55.0190635,79.1453628 56.7160044,81.9659364 Z M23.3123482,48.6845224 C21.0768571,48.6845224 19.2647545,50.4621948 19.2647545,52.6495784 C19.2647545,54.8437341 21.0768571,56.6180205 23.3123482,56.6180205 C25.5478393,56.6180205 27.3599419,54.8437341 27.3599419,52.6495784 C27.3599419,50.4621948 25.5478393,48.6845224 23.3123482,48.6845224 Z M33.9614148,48.6845224 C31.7259237,48.6845224 29.9138211,50.4621948 29.9138211,52.6495784 C29.9138211,54.8437341 31.7259237,56.6180205 33.9614148,56.6180205 C36.1969059,56.6180205 38.0090085,54.8437341 38.0090085,52.6495784 C38.0090085,50.4621948 36.1969059,48.6845224 33.9614148,48.6845224 Z" fill="#097cf7" fill-rule="nonzero"/>
</svg>
